<svg width="150" height="40" viewBox="0 0 150 40" fill="none" xmlns="http://www.w3.org/2000/svg">
  <path d="M20 5C11.7157 5 5 11.7157 5 20C5 28.2843 11.7157 35 20 35C28.2843 35 35 28.2843 35 20C35 11.7157 28.2843 5 20 5Z" fill="#4ADE80"/>
  <path d="M20 10L10 18H13V28H27V18H30L20 10Z" fill="white"/>
  <path d="M45 15H52.5C54.1667 15 55.5833 15.3333 56.75 16C57.9167 16.6667 58.8333 17.5833 59.5 18.75C60.1667 19.9167 60.5 21.25 60.5 22.75C60.5 24.25 60.1667 25.5833 59.5 26.75C58.8333 27.9167 57.9167 28.8333 56.75 29.5C55.5833 30.1667 54.1667 30.5 52.5 30.5H45V15ZM52.25 27.5C53.75 27.5 54.9167 27.0833 55.75 26.25C56.5833 25.4167 57 24.25 57 22.75C57 21.25 56.5833 20.0833 55.75 19.25C54.9167 18.4167 53.75 18 52.25 18H48.5V27.5H52.25Z" fill="white"/>
  <path d="M67.5 30.75C66.3333 30.75 65.25 30.5 64.25 30C63.25 29.5 62.4167 28.75 61.75 27.75C61.0833 26.75 60.75 25.5833 60.75 24.25C60.75 22.9167 61.0833 21.75 61.75 20.75C62.4167 19.75 63.25 19 64.25 18.5C65.25 18 66.3333 17.75 67.5 17.75C68.6667 17.75 69.75 18 70.75 18.5C71.75 19 72.5833 19.75 73.25 20.75C73.9167 21.75 74.25 22.9167 74.25 24.25C74.25 25.5833 73.9167 26.75 73.25 27.75C72.5833 28.75 71.75 29.5 70.75 30C69.75 30.5 68.6667 30.75 67.5 30.75ZM67.5 28C68.5 28 69.3333 27.6667 70 27C70.6667 26.3333 71 25.4167 71 24.25C71 23.0833 70.6667 22.1667 70 21.5C69.3333 20.8333 68.5 20.5 67.5 20.5C66.5 20.5 65.6667 20.8333 65 21.5C64.3333 22.1667 64 23.0833 64 24.25C64 25.4167 64.3333 26.3333 65 27C65.6667 27.6667 66.5 28 67.5 28Z" fill="white"/>
  <path d="M81.5 30.75C80.3333 30.75 79.25 30.5 78.25 30C77.25 29.5 76.4167 28.75 75.75 27.75C75.0833 26.75 74.75 25.5833 74.75 24.25C74.75 22.9167 75.0833 21.75 75.75 20.75C76.4167 19.75 77.25 19 78.25 18.5C79.25 18 80.3333 17.75 81.5 17.75C82.6667 17.75 83.75 18 84.75 18.5C85.75 19 86.5833 19.75 87.25 20.75C87.9167 21.75 88.25 22.9167 88.25 24.25C88.25 25.5833 87.9167 26.75 87.25 27.75C86.5833 28.75 85.75 29.5 84.75 30C83.75 30.5 82.6667 30.75 81.5 30.75ZM81.5 28C82.5 28 83.3333 27.6667 84 27C84.6667 26.3333 85 25.4167 85 24.25C85 23.0833 84.6667 22.1667 84 21.5C83.3333 20.8333 82.5 20.5 81.5 20.5C80.5 20.5 79.6667 20.8333 79 21.5C78.3333 22.1667 78 23.0833 78 24.25C78 25.4167 78.3333 26.3333 79 27C79.6667 27.6667 80.5 28 81.5 28Z" fill="white"/>
  <path d="M95.5 30.75C94.3333 30.75 93.25 30.5 92.25 30C91.25 29.5 90.4167 28.75 89.75 27.75C89.0833 26.75 88.75 25.5833 88.75 24.25C88.75 22.9167 89.0833 21.75 89.75 20.75C90.4167 19.75 91.25 19 92.25 18.5C93.25 18 94.3333 17.75 95.5 17.75C96.6667 17.75 97.75 18 98.75 18.5C99.75 19 100.583 19.75 101.25 20.75C101.917 21.75 102.25 22.9167 102.25 24.25C102.25 25.5833 101.917 26.75 101.25 27.75C100.583 28.75 99.75 29.5 98.75 30C97.75 30.5 96.6667 30.75 95.5 30.75ZM95.5 28C96.5 28 97.3333 27.6667 98 27C98.6667 26.3333 99 25.4167 99 24.25C99 23.0833 98.6667 22.1667 98 21.5C97.3333 20.8333 96.5 20.5 95.5 20.5C94.5 20.5 93.6667 20.8333 93 21.5C92.3333 22.1667 92 23.0833 92 24.25C92 25.4167 92.3333 26.3333 93 27C93.6667 27.6667 94.5 28 95.5 28Z" fill="white"/>
  <path d="M110 18V20.75H104.5V18H110Z" fill="white"/>
  <path d="M111 15H114.5V27.5H121V30.5H111V15Z" fill="white"/>
  <path d="M122 15H125.5V30.5H122V15Z" fill="white"/>
  <path d="M127 15H130.5V27.5H137V30.5H127V15Z" fill="white"/>
  <path d="M138 15H150V18H141.5V21.25H149V24.25H141.5V27.5H150V30.5H138V15Z" fill="white"/>
</svg>